<svg width="431" height="487" viewBox="0 0 431 487" fill="none" xmlns="http://www.w3.org/2000/svg">
<path d="M283.855 216.487H303.723L303.102 82.9713H283.855V216.487Z" fill="#FAC446"/>
<path d="M242.878 72.5223H262.125L263.366 216.487H242.878V72.5223Z" fill="#FAC446"/>
<path d="M222.389 113.738H200.659V216.487H222.7L222.389 113.738Z" fill="#FAC446"/>
<path d="M160.923 150.309H182.033V216.487H160.923V150.309Z" fill="#FAC446"/>
<path d="M120.567 177.593H140.435V216.487H120.567V177.593Z" fill="#FAC446"/>
<path d="M78.9691 200.813H100.699V216.487H78.9691V200.813Z" fill="#FAC446"/>
<path d="M283.855 216.487H303.723L303.102 82.9713H283.855V216.487Z" stroke="#FAC446" stroke-width="2" stroke-linecap="round"/>
<path d="M242.878 72.5223H262.125L263.366 216.487H242.878V72.5223Z" stroke="#FAC446" stroke-width="2" stroke-linecap="round"/>
<path d="M222.389 113.738H200.659V216.487H222.7L222.389 113.738Z" stroke="#FAC446" stroke-width="2" stroke-linecap="round"/>
<path d="M160.923 150.309H182.033V216.487H160.923V150.309Z" stroke="#FAC446" stroke-width="2" stroke-linecap="round"/>
<path d="M120.567 177.593H140.435V216.487H120.567V177.593Z" stroke="#FAC446" stroke-width="2" stroke-linecap="round"/>
<path d="M78.9691 200.813H100.699V216.487H78.9691V200.813Z" stroke="#FAC446" stroke-width="2" stroke-linecap="round"/>
<path d="M50.4093 112.577C15.0199 164.822 16.8825 247.834 61.5848 307.045" stroke="#022B3F" stroke-width="10" stroke-linecap="round"/>
<path d="M213.763 25.9396C162.313 21.9585 101.547 44.4161 67.1726 89.9373" stroke="#022B3F" stroke-width="10" stroke-linecap="round"/>
<path d="M152.852 403.988H260.883C260.883 403.988 262.814 375.544 264.608 367.997C266.402 360.451 267.712 358.709 272.679 352.904C277.646 347.099 284.476 342.455 284.476 342.455L294.409 333.748L305.585 323.879L320.486 310.528L332.282 300.079L342.216 289.63L349.667 279.181L352.15 273.956L354.013 265.829L362.084 227.516L367.672 196.169V179.334V170.627V163.08C367.672 163.08 367.672 153.212 366.43 149.148C365.188 145.085 363.481 140.441 357.117 140.441C350.768 140.441 348.983 143.33 347.195 146.226L347.183 146.246C345.391 149.148 344.7 153.792 344.079 158.436C343.458 163.08 343.458 168.885 343.458 168.885L341.595 188.622L338.491 205.457L334.766 222.292L320.486 254.8L305.585 269.312L289.443 282.083L265.85 300.079C265.85 300.079 254.674 308.786 245.361 314.591C236.048 320.396 226.735 322.718 219.906 319.235C213.076 315.752 212.455 309.367 212.455 305.303C212.455 301.24 220.526 293.693 220.526 293.693L230.46 285.566L239.152 279.761L249.086 272.795L255.916 268.151L262.745 262.346L265.229 258.283C265.229 258.283 268.954 249.575 263.987 243.77C259.02 237.965 250.328 240.287 250.328 240.287L240.394 244.351L227.977 253.058L209.351 265.829L186.379 282.083L170.236 294.854L159.682 305.303L152.852 318.655L150.99 335.489L152.852 403.988Z" fill="#022B3F"/>
<path d="M347.183 146.246C345.391 149.148 344.7 153.792 344.079 158.436C343.458 163.08 343.458 168.885 343.458 168.885L341.595 188.622L338.491 205.457L334.766 222.292L320.486 254.8L305.585 269.312L289.443 282.083L265.85 300.079C265.85 300.079 254.674 308.786 245.361 314.591C236.048 320.396 226.735 322.718 219.906 319.235C213.076 315.752 212.455 309.367 212.455 305.303C212.455 301.24 220.526 293.693 220.526 293.693L230.46 285.566L239.152 279.761L249.086 272.795L255.916 268.151L262.745 262.346L265.229 258.283C265.229 258.283 268.954 249.575 263.987 243.77C259.02 237.965 250.328 240.287 250.328 240.287L240.394 244.351L227.977 253.058L209.351 265.829L186.379 282.083L170.236 294.854L159.682 305.303L152.852 318.655L150.99 335.489L152.852 403.988H260.883C260.883 403.988 262.814 375.544 264.608 367.997C266.402 360.451 267.712 358.709 272.679 352.904C277.646 347.099 284.476 342.455 284.476 342.455L294.409 333.748L305.585 323.879L320.486 310.528L332.282 300.079L342.216 289.63L349.667 279.181L352.15 273.956L354.013 265.829L362.084 227.516L367.672 196.169V179.334V170.627V163.08C367.672 163.08 367.672 153.212 366.43 149.148C365.188 145.085 363.481 140.441 357.117 140.441C350.768 140.441 348.983 143.33 347.195 146.226M347.183 146.246L347.195 146.226M347.183 146.246C347.187 146.239 347.191 146.233 347.195 146.226" stroke="#022B3F" stroke-width="2" stroke-linecap="round"/>
<ellipse cx="295.651" cy="42.3362" rx="24.8346" ry="23.22" fill="#FAC446"/>
<path d="M13.9706 443.697H30.4836V449.871H13.9706V443.697ZM14.5586 457.809H33.2276V464.179H6.6696V429.879H32.5906V436.249H14.5586V457.809ZM72.7656 437.425C74.8563 437.425 76.702 437.849 78.3026 438.699C79.936 439.515 81.21 440.789 82.1246 442.521C83.072 444.219 83.5456 446.408 83.5456 449.087V464.179H75.9016V450.263C75.9016 448.139 75.4606 446.571 74.5786 445.559C73.6966 444.546 72.4553 444.04 70.8546 444.04C69.744 444.04 68.7476 444.301 67.8656 444.824C66.9836 445.314 66.2976 446.065 65.8076 447.078C65.3176 448.09 65.0726 449.381 65.0726 450.949V464.179H57.4286V450.263C57.4286 448.139 56.9876 446.571 56.1056 445.559C55.2563 444.546 54.0313 444.04 52.4306 444.04C51.32 444.04 50.3236 444.301 49.4416 444.824C48.5596 445.314 47.8736 446.065 47.3836 447.078C46.8936 448.09 46.6486 449.381 46.6486 450.949V464.179H39.0046V437.817H46.3056V445.02L44.9336 442.913C45.8483 441.116 47.1386 439.76 48.8046 438.846C50.5033 437.898 52.4306 437.425 54.5866 437.425C57.004 437.425 59.111 438.045 60.9076 439.287C62.737 440.495 63.9456 442.357 64.5336 444.873L61.8386 444.138C62.7206 442.08 64.1253 440.446 66.0526 439.238C68.0126 438.029 70.2503 437.425 72.7656 437.425ZM105.979 464.571C103.758 464.571 101.814 464.081 100.148 463.101C98.4822 462.121 97.1755 460.634 96.2282 458.642C95.3135 456.616 94.8562 454.068 94.8562 450.998C94.8562 447.894 95.2972 445.346 96.1792 443.354C97.0612 441.361 98.3352 439.875 100.001 438.895C101.667 437.915 103.66 437.425 105.979 437.425C108.462 437.425 110.683 437.996 112.643 439.14C114.636 440.25 116.204 441.818 117.347 443.844C118.523 445.869 119.111 448.254 119.111 450.998C119.111 453.774 118.523 456.175 117.347 458.201C116.204 460.226 114.636 461.794 112.643 462.905C110.683 464.015 108.462 464.571 105.979 464.571ZM90.3972 473.685V437.817H97.6982V443.207L97.5512 451.047L98.0412 458.838V473.685H90.3972ZM104.656 458.299C105.93 458.299 107.057 458.005 108.037 457.417C109.05 456.829 109.85 455.996 110.438 454.918C111.059 453.807 111.369 452.5 111.369 450.998C111.369 449.462 111.059 448.156 110.438 447.078C109.85 446 109.05 445.167 108.037 444.579C107.057 443.991 105.93 443.697 104.656 443.697C103.382 443.697 102.239 443.991 101.226 444.579C100.214 445.167 99.4132 446 98.8252 447.078C98.2372 448.156 97.9432 449.462 97.9432 450.998C97.9432 452.5 98.2372 453.807 98.8252 454.918C99.4132 455.996 100.214 456.829 101.226 457.417C102.239 458.005 103.382 458.299 104.656 458.299ZM124.228 464.179V437.817H131.529V445.265L130.5 443.109C131.284 441.247 132.542 439.842 134.273 438.895C136.005 437.915 138.112 437.425 140.594 437.425V444.481C140.268 444.448 139.974 444.432 139.712 444.432C139.451 444.399 139.173 444.383 138.879 444.383C136.789 444.383 135.09 444.987 133.783 446.196C132.509 447.372 131.872 449.217 131.872 451.733V464.179H124.228ZM158.031 464.571C155.026 464.571 152.38 463.983 150.093 462.807C147.839 461.631 146.091 460.03 144.85 458.005C143.609 455.947 142.988 453.611 142.988 450.998C142.988 448.352 143.592 446.016 144.801 443.991C146.042 441.933 147.725 440.332 149.848 439.189C151.971 438.013 154.372 437.425 157.051 437.425C159.632 437.425 161.951 437.98 164.009 439.091C166.1 440.169 167.749 441.737 168.958 443.795C170.167 445.82 170.771 448.254 170.771 451.096C170.771 451.39 170.755 451.733 170.722 452.125C170.689 452.484 170.657 452.827 170.624 453.154H149.211V448.695H166.606L163.666 450.018C163.666 448.646 163.388 447.453 162.833 446.441C162.278 445.428 161.51 444.644 160.53 444.089C159.55 443.501 158.407 443.207 157.1 443.207C155.793 443.207 154.634 443.501 153.621 444.089C152.641 444.644 151.873 445.444 151.318 446.49C150.763 447.502 150.485 448.711 150.485 450.116V451.292C150.485 452.729 150.795 454.003 151.416 455.114C152.069 456.192 152.968 457.025 154.111 457.613C155.287 458.168 156.659 458.446 158.227 458.446C159.632 458.446 160.857 458.233 161.902 457.809C162.98 457.384 163.96 456.747 164.842 455.898L168.909 460.308C167.7 461.68 166.181 462.741 164.352 463.493C162.523 464.211 160.416 464.571 158.031 464.571ZM187.179 464.571C184.696 464.571 182.459 464.015 180.466 462.905C178.473 461.761 176.889 460.177 175.713 458.152C174.57 456.126 173.998 453.742 173.998 450.998C173.998 448.221 174.57 445.82 175.713 443.795C176.889 441.769 178.473 440.201 180.466 439.091C182.459 437.98 184.696 437.425 187.179 437.425C189.4 437.425 191.344 437.915 193.01 438.895C194.676 439.875 195.966 441.361 196.881 443.354C197.796 445.346 198.253 447.894 198.253 450.998C198.253 454.068 197.812 456.616 196.93 458.642C196.048 460.634 194.774 462.121 193.108 463.101C191.475 464.081 189.498 464.571 187.179 464.571ZM188.502 458.299C189.743 458.299 190.87 458.005 191.883 457.417C192.896 456.829 193.696 455.996 194.284 454.918C194.905 453.807 195.215 452.5 195.215 450.998C195.215 449.462 194.905 448.156 194.284 447.078C193.696 446 192.896 445.167 191.883 444.579C190.87 443.991 189.743 443.697 188.502 443.697C187.228 443.697 186.085 443.991 185.072 444.579C184.059 445.167 183.243 446 182.622 447.078C182.034 448.156 181.74 449.462 181.74 450.998C181.74 452.5 182.034 453.807 182.622 454.918C183.243 455.996 184.059 456.829 185.072 457.417C186.085 458.005 187.228 458.299 188.502 458.299ZM195.411 464.179V458.789L195.558 450.949L195.068 443.158V427.821H202.712V464.179H195.411ZM222.87 464.571C219.865 464.571 217.219 463.983 214.932 462.807C212.678 461.631 210.93 460.03 209.689 458.005C208.448 455.947 207.827 453.611 207.827 450.998C207.827 448.352 208.431 446.016 209.64 443.991C210.881 441.933 212.564 440.332 214.687 439.189C216.81 438.013 219.211 437.425 221.89 437.425C224.471 437.425 226.79 437.98 228.848 439.091C230.939 440.169 232.588 441.737 233.797 443.795C235.006 445.82 235.61 448.254 235.61 451.096C235.61 451.39 235.594 451.733 235.561 452.125C235.528 452.484 235.496 452.827 235.463 453.154H214.05V448.695H231.445L228.505 450.018C228.505 448.646 228.227 447.453 227.672 446.441C227.117 445.428 226.349 444.644 225.369 444.089C224.389 443.501 223.246 443.207 221.939 443.207C220.632 443.207 219.473 443.501 218.46 444.089C217.48 444.644 216.712 445.444 216.157 446.49C215.602 447.502 215.324 448.711 215.324 450.116V451.292C215.324 452.729 215.634 454.003 216.255 455.114C216.908 456.192 217.807 457.025 218.95 457.613C220.126 458.168 221.498 458.446 223.066 458.446C224.471 458.446 225.696 458.233 226.741 457.809C227.819 457.384 228.799 456.747 229.681 455.898L233.748 460.308C232.539 461.68 231.02 462.741 229.191 463.493C227.362 464.211 225.255 464.571 222.87 464.571ZM274.46 437.425C276.551 437.425 278.396 437.849 279.997 438.699C281.63 439.515 282.904 440.789 283.819 442.521C284.766 444.219 285.24 446.408 285.24 449.087V464.179H277.596V450.263C277.596 448.139 277.155 446.571 276.273 445.559C275.391 444.546 274.15 444.04 272.549 444.04C271.438 444.04 270.442 444.301 269.56 444.824C268.678 445.314 267.992 446.065 267.502 447.078C267.012 448.09 266.767 449.381 266.767 450.949V464.179H259.123V450.263C259.123 448.139 258.682 446.571 257.8 445.559C256.951 444.546 255.726 444.04 254.125 444.04C253.014 444.04 252.018 444.301 251.136 444.824C250.254 445.314 249.568 446.065 249.078 447.078C248.588 448.09 248.343 449.381 248.343 450.949V464.179H240.699V437.817H248V445.02L246.628 442.913C247.543 441.116 248.833 439.76 250.499 438.846C252.198 437.898 254.125 437.425 256.281 437.425C258.698 437.425 260.805 438.045 262.602 439.287C264.431 440.495 265.64 442.357 266.228 444.873L263.533 444.138C264.415 442.08 265.82 440.446 267.747 439.238C269.707 438.029 271.945 437.425 274.46 437.425ZM292.092 464.179V437.817H299.736V464.179H292.092ZM295.914 434.142C294.509 434.142 293.366 433.733 292.484 432.917C291.602 432.1 291.161 431.087 291.161 429.879C291.161 428.67 291.602 427.657 292.484 426.841C293.366 426.024 294.509 425.616 295.914 425.616C297.318 425.616 298.462 426.008 299.344 426.792C300.226 427.543 300.667 428.523 300.667 429.732C300.667 431.006 300.226 432.067 299.344 432.917C298.494 433.733 297.351 434.142 295.914 434.142ZM323 464.179V459.034L322.51 457.907V448.695C322.51 447.061 322.003 445.787 320.991 444.873C320.011 443.958 318.492 443.501 316.434 443.501C315.029 443.501 313.641 443.729 312.269 444.187C310.929 444.611 309.786 445.199 308.839 445.951L306.095 440.61C307.532 439.597 309.263 438.813 311.289 438.258C313.314 437.702 315.372 437.425 317.463 437.425C321.481 437.425 324.6 438.372 326.822 440.267C329.043 442.161 330.154 445.118 330.154 449.136V464.179H323ZM314.964 464.571C312.906 464.571 311.142 464.228 309.672 463.542C308.202 462.823 307.075 461.859 306.291 460.651C305.507 459.442 305.115 458.086 305.115 456.584C305.115 455.016 305.49 453.644 306.242 452.468C307.026 451.292 308.251 450.377 309.917 449.724C311.583 449.038 313.755 448.695 316.434 448.695H323.441V453.154H317.267C315.47 453.154 314.229 453.448 313.543 454.036C312.889 454.624 312.563 455.359 312.563 456.241C312.563 457.221 312.938 458.005 313.69 458.593C314.474 459.148 315.535 459.426 316.875 459.426C318.149 459.426 319.292 459.132 320.305 458.544C321.317 457.923 322.052 457.025 322.51 455.849L323.686 459.377C323.13 461.075 322.118 462.366 320.648 463.248C319.178 464.13 317.283 464.571 314.964 464.571Z" fill="#022B3F"/>
</svg>
